<svg xmlns="http://www.w3.org/2000/svg" width="93.154" height="93.213" viewBox="0 0 93.154 93.213"><defs><style>.a{fill:#fff;}</style></defs><g transform="translate(46.577 46.607)"><g transform="translate(-46.577 -46.607)"><path class="a" d="M89.34,7.471,69.856,5.1,49.739,2.719,28.038.026a4.119,4.119,0,0,0-4.594,2.534l-.792.792L17.108,7.788l-4.435,3.326a7.762,7.762,0,0,0-10.3.158A9.979,9.979,0,0,0,0,15.55v2.693A9.979,9.979,0,0,0,2.376,22.52c.158.158.158.634.158.95V91.109a2.693,2.693,0,0,0,.792,2.059H4.594a2.534,2.534,0,0,0,.792-2.059V83.822h4.752v7.287a2.534,2.534,0,0,0,.792,2.059H12.2a4.91,4.91,0,0,0,.634-1.584c-.158-9.187-.158-18.375-.158-27.562h0V22.678h.317l9.821,7.6.475.634a4.277,4.277,0,0,0,5.069,2.534l8.237-1.109L53.857,30.6l15.207-1.9,8.871-1.109,11.247-1.426a4.119,4.119,0,0,0,3.96-4.435q0-4.911,0-9.979A4.119,4.119,0,0,0,89.34,7.471ZM2.693,16.817A4.911,4.911,0,1,1,7.6,21.728a4.911,4.911,0,0,1-4.911-4.911Zm2.693,14.89V24.421H9.979v7.287Zm4.594,2.851V48.023H5.386V34.559Zm0,46.254H5.386V67.348H9.979ZM5.386,64.5V51.033H9.979V64.5ZM23.127,27.114l-3.01-2.376-5.069-3.8a.792.792,0,0,1-.317-1.109,7.6,7.6,0,0,0,0-5.861.719.719,0,0,1,0-.792l8.4-6.495Zm12.2,2.851-7.92.95A1.426,1.426,0,0,1,25.82,29.49V4.779c0-1.9.475-2.218,2.218-2.059l6.653.792h.475Zm14.415-1.742L38.175,29.648V4.145L50.689,5.729V27.272c0,.634-.317.95-1.109.95Zm13.623-1.584-9.5,1.109h-.475V6.046l4.277.475,5.544.634a.84.84,0,0,1,.95.95V25.846C64,26.163,64,26.48,63.362,26.638ZM79.2,24.1c0,.158-.317.634-.634.634l-7.445.95h0l-4.277.475V7.63l12.2,1.426v.317C79.2,14.283,79.2,19.193,79.2,24.1Zm11.247-2.534c0,1.267-.475,1.742-1.742,1.9l-5.544.634H82.053V9.531l2.376.317,4.119.475c1.426.158,1.9.634,1.9,2.059v9.187Z" transform="translate(0 0.045)"/><path class="a" d="M43.38,37.8H69.516a9.187,9.187,0,0,1,6.811,15.682,8.712,8.712,0,0,1-9.5,2.376,8.871,8.871,0,0,1-6.336-7.6,6.97,6.97,0,0,1-.158-1.109,1.358,1.358,0,1,1,2.693-.317c.158.634.158,1.109.317,1.742a6.495,6.495,0,1,0,7.287-8.079H15.5a1.328,1.328,0,0,1,.317-2.534H43.38Z" transform="translate(8.577 22.146)"/><path class="a" d="M32.966,43.842H19.185a1.426,1.426,0,0,1,0-2.534H45.163a9.346,9.346,0,1,1-8.712,10.138,3.168,3.168,0,0,1,0-.95,1.427,1.427,0,0,1,2.851,0,16.79,16.79,0,0,0,.317,2.059A6.495,6.495,0,1,0,46.747,44H32.966Z" transform="translate(10.754 24.185)"/><path class="a" d="M35.064,40.291H46.785a6.537,6.537,0,1,0-6.811-6.653,1.5,1.5,0,0,1-1.584,1.584c-.95,0-1.267-.792-1.267-1.742a9.346,9.346,0,1,1,9.979,9.5H22.866a1.426,1.426,0,1,1,.158-2.693H35.064Z" transform="translate(12.299 14.272)"/><path class="a" d="M49.237,34.3a55.122,55.122,0,0,1,7.6.792,13.781,13.781,0,0,1,9.979,8.871c.317.95.158,1.742-.634,2.059s-1.584,0-1.9-1.109A11.722,11.722,0,0,0,55.1,37.468H44.326a1.426,1.426,0,0,1,.158-2.693h4.752Z" transform="translate(25.371 20.104)"/><path class="a" d="M58.367,45.579A1.426,1.426,0,0,1,57.1,44.153a1.426,1.426,0,0,1,2.693,0,1.426,1.426,0,0,1-1.426,1.426Z" transform="translate(33.349 25.3)"/></g></g></svg>