<svg xmlns="http://www.w3.org/2000/svg" width="121.167" height="77.526" viewBox="0 0 121.167 77.526"><defs><style>.a{fill:#fff;}</style></defs><g transform="translate(60.584 38.763)"><g transform="translate(-60.584 -38.763)"><path class="a" d="M26.263,67.831h-.072a1.791,1.791,0,0,1-1.72-1.433L17.737,30.573,3.049,43.47A1.791,1.791,0,0,1,.756,40.819L17.737,25.844a1.791,1.791,0,0,1,2.938,1l5.732,30.81,11.106-44.28a1.791,1.791,0,0,1,3.511.287l2.436,30.093,6.162-19.417a1.791,1.791,0,0,1,3.368-.143L60.3,41.679A1.791,1.791,0,1,1,57,43.04L51.628,30.071,44.176,53.5a1.791,1.791,0,0,1-3.511-.43l-2.293-28.3L27.983,66.47A1.791,1.791,0,0,1,26.263,67.831Z" transform="translate(-0.391 -3.417)"/><path class="a" d="M121.437,58.135c-4.514,0-7.022-3.583-9.171-6.807s-3.726-5.23-6.234-5.23c-5.875,0-8.24,6.019-8.311,6.305a1.8,1.8,0,1,1-3.368-1.29c.143-.358,3.3-8.6,11.679-8.6,4.586,0,7.022,3.654,9.171,6.807s3.726,5.23,6.162,5.23,4.3-2.579,6.305-6.162,3.368-6.09,6.52-6.09,5.3,2.436,7.308,4.514,3.224,3.511,4.872,3.511a1.791,1.791,0,1,1,0,3.583c-3.224,0-5.517-2.436-7.523-4.657s-3.081-3.368-4.657-3.368S131.9,48.1,130.751,50.11C128.888,53.692,126.452,58.135,121.437,58.135Z" transform="translate(-26.995 -11.992)"/><path class="a" d="M88.408,77.526A2.508,2.508,0,0,1,85.9,75.018V2.508a2.508,2.508,0,1,1,5.016,0v72.51A2.508,2.508,0,0,1,88.408,77.526Z" transform="translate(-24.632)"/></g></g></svg>