<svg xmlns="http://www.w3.org/2000/svg" width="100.638" height="88.466" viewBox="0 0 100.638 88.466"><defs><style>.a{fill:#fff;}</style></defs><g transform="translate(50.319 44.233)"><g transform="translate(-50.319 -44.233)"><path class="a" d="M8.1,64.305a2.681,2.681,0,0,0,1.915.766l1.532-.766a1.915,1.915,0,0,0,.383-1.532,2.68,2.68,0,0,0-1.149-1.915,9.573,9.573,0,0,1-3.829-8.424A60.5,60.5,0,0,1,8.87,33.671,43.654,43.654,0,0,1,14.231,21.8,33.315,33.315,0,0,1,33.378,6.866l-3.829,3.446A51.312,51.312,0,0,0,18.826,27.927a86.542,86.542,0,0,0-5.744,21.827c-.383,4.978-.766,9.573-1.149,14.551v1.532a5.744,5.744,0,0,0,3.829,5.744,52.461,52.461,0,0,0,14.551,2.68H30.7a4.6,4.6,0,0,0,3.063-1.149,4.978,4.978,0,0,0,1.532-3.446V67.751c0-4.6.383-9.19.383-13.785a85.392,85.392,0,0,1,2.68-17.232,54.376,54.376,0,0,1,4.978-13.02A30.251,30.251,0,0,1,57.885,9.547a3.446,3.446,0,0,1,3.829,0l1.532.766h1.149l2.68,1.532h0l-1.915,1.915L61.331,19.12a47.483,47.483,0,0,0-8.807,19.529c-.766,3.446-1.149,7.276-1.915,10.722l-.766,4.6a2.68,2.68,0,0,0,.383,1.915l1.532.766h1.915a2.68,2.68,0,0,0,.766-1.915,91.135,91.135,0,0,1,2.681-16.083,46.334,46.334,0,0,1,8.807-18,25.656,25.656,0,0,1,4.978-4.6l.766.766,2.68,3.063a37.91,37.91,0,0,1,8.424,23.359,26.422,26.422,0,0,1-1.149,9.573,16.849,16.849,0,0,1-8.807,9.19,53.227,53.227,0,0,1-20.3,5.361l-10.339.766H38.356c-1.532,0-2.3.766-2.3,1.915a1.915,1.915,0,0,0,.383,1.532l1.915.766a103.39,103.39,0,0,0,24.124-2.3,44.037,44.037,0,0,0,14.168-6.127,19.146,19.146,0,0,0,9.19-12.637,41.739,41.739,0,0,0-2.68-24.507,40.59,40.59,0,0,0-18.763-20.3A13.785,13.785,0,0,1,60.183,3.42L58.268,1.888A16.849,16.849,0,0,0,45.631.739h-9.19A36.761,36.761,0,0,0,13.848,14.908,48.249,48.249,0,0,0,3.892,37.5,70.076,70.076,0,0,0,2.744,51.669,14.551,14.551,0,0,0,8.1,64.305ZM31.08,69.283v.766h-.766a58.587,58.587,0,0,1-11.871-1.915c-1.915-.766-2.3-.766-2.3-3.063a106.837,106.837,0,0,1,1.915-20.3,76.585,76.585,0,0,1,7.659-21.444A37.527,37.527,0,0,1,39.5,7.632a21.444,21.444,0,0,1,11.1-3.446h1.149a10.339,10.339,0,0,1,4.6,1.532h0L53.29,7.249A34.464,34.464,0,0,0,40.27,21.034a62.8,62.8,0,0,0-6.127,15.7A122.536,122.536,0,0,0,31.08,69.283Z" transform="translate(7.707 -0.009)"/><path class="a" d="M98.494,13.329,97.346,12.18a1.915,1.915,0,0,0-1.915.383c-.766.383-1.532,1.532-.383,3.063A5.744,5.744,0,0,1,96.2,20.6a13.4,13.4,0,0,1-7.276,9.573l-7.276,3.446L78.2,35.156,75.9,36.3a92.667,92.667,0,0,0-13.019,6.51l-1.915,1.532L57.521,46.26A34.464,34.464,0,0,1,40.672,50.09H37.992l-6.51-.766a85.01,85.01,0,0,1-19.146-4.978,16.083,16.083,0,0,1-6.51-4.212,4.212,4.212,0,0,1-1.149-4.212,15.7,15.7,0,0,1,2.3-4.212l1.915-1.915,1.532-1.149a2.3,2.3,0,0,0,.383-3.063l-1.532-.766H7.358A19.912,19.912,0,0,0,2,30.56,10.339,10.339,0,0,0,.082,38.219a11.488,11.488,0,0,0,5.361,7.276,40.591,40.591,0,0,0,11.488,4.978A86.159,86.159,0,0,0,40.672,54.3h0A35.612,35.612,0,0,0,61.35,48.941l1.915-1.149,4.978-3.063,16.466-7.276A26.8,26.8,0,0,0,96.2,29.795C101.175,23.285,101.941,18.307,98.494,13.329Z" transform="translate(0.029 34.118)"/></g></g></svg>