<?xml version="1.0" encoding="utf-8"?>
<!-- Generator: Adobe Illustrator 24.1.0, SVG Export Plug-In . SVG Version: 6.00 Build 0)  -->
<!DOCTYPE svg PUBLIC "-//W3C//DTD SVG 1.1//EN" "http://www.w3.org/Graphics/SVG/1.1/DTD/svg11.dtd" [
	<!ENTITY ns_extend "http://ns.adobe.com/Extensibility/1.0/">
	<!ENTITY ns_ai "http://ns.adobe.com/AdobeIllustrator/10.0/">
	<!ENTITY ns_graphs "http://ns.adobe.com/Graphs/1.0/">
	<!ENTITY ns_vars "http://ns.adobe.com/Variables/1.0/">
	<!ENTITY ns_imrep "http://ns.adobe.com/ImageReplacement/1.0/">
	<!ENTITY ns_sfw "http://ns.adobe.com/SaveForWeb/1.0/">
	<!ENTITY ns_custom "http://ns.adobe.com/GenericCustomNamespace/1.0/">
	<!ENTITY ns_adobe_xpath "http://ns.adobe.com/XPath/1.0/">
]>
<svg version="1.1" id="Layer_1" xmlns:x="&ns_extend;" xmlns:i="&ns_ai;" xmlns:graph="&ns_graphs;"
	 xmlns="http://www.w3.org/2000/svg" xmlns:xlink="http://www.w3.org/1999/xlink" x="0px" y="0px" viewBox="0 0 500 500"
	 style="enable-background:new 0 0 500 500;" xml:space="preserve">
<style type="text/css">
	.st0{fill:#FFFFFF;}
</style>
<metadata>
	<sfw  xmlns="&ns_sfw;">
		<slices></slices>
		<sliceSourceBounds  bottomLeftOrigin="true" height="490" width="409.3" x="45.4" y="5"></sliceSourceBounds>
	</sfw>
</metadata>
<g id="Artwork_17" transform="translate(36.793 44.206)">
	<g>
		<g>
			<g id="Group_18955" transform="translate(-36.793 -44.206)">
				<path id="Path_98877" class="st0" d="M270.7,134.1L270.7,134.1"/>
				<path id="Path_98878" class="st0" d="M264.8,368.3L264.8,368.3"/>
				<path id="Path_98879" class="st0" d="M273,366.9L273,366.9"/>
				<path id="Path_98880" class="st0" d="M256.6,429.4l1.5,2.3L256.6,429.4"/>
				<path id="Path_98882" class="st0" d="M241.7,263.2L241.7,263.2"/>
				<path id="Path_98883" class="st0" d="M264,133.4L264,133.4"/>
				<path id="Path_98884" class="st0" d="M256.6,368.3L256.6,368.3"/>
				<path id="Path_98885" class="st0" d="M269.2,121.4L269.2,121.4"/>
				<path id="Path_98887" class="st0" d="M243.8,217.6l-2.3-1.5L243.8,217.6"/>
				<path id="Path_98888" class="st0" d="M451.3,282.6L420.7,255l-12-11.1l1.5-1.5l40.3-37.3c2.8-1.5,4-5.2,2.4-8.1
					c-0.9-1.8-2.7-3-4.6-3.1l-41.8-12.7l-12.7-3.7v-3.1l20.1-50.7c2.3-5.9-0.7-10.4-7.5-8.9l-47.8,7.5l-8.9,1.5v-16.4l-3-40.3
					c-0.1-1.1-0.4-2-0.7-3c-1.1-3.1-4.5-4.7-7.6-3.7c-0.5,0.1-0.9,0.4-1.3,0.7l-29.2,19.2l-18.6,12.7l-1.5-3l-26.1-46.9
					c-0.9-2-3-3.4-5.2-3.7v-30c-1.2-3.6-5.1-5.3-8.5-4.1c-1.9,0.7-3.4,2.3-4.1,4.1v181.9l-18.6-46.2c-0.2-0.7-0.2-1.5,0-2.3
					l14.9-35.8l1.5-3.7c1.5-6-0.5-12.3-5.2-16.4c-4.6-4.4-11.4-5.6-17.2-3l-5.9,3v-1.5l8.9-20.9l1.5-3.7c2.7-8.7-2-18-10.7-20.7
					c-8.5-2.7-17.7,1.9-20.6,10.3l-3,6.8c-1.2-4.4-4.1-8.2-8.2-10.4c-3.8-2.4-8.4-3-12.7-1.5c-12,4.5-14.2,12.7-10.4,23.8l-9.7-3.7
					c-8.8-2.7-18.3,2.1-21,10.9c-2.7,8.8,2.1,18.3,10.9,21c0.1,0,0.2,0.1,0.4,0.1l22.4,9h-0.7c-9,0.2-16.2,7.7-16,16.8
					c0.1,7,4.9,13.2,11.5,15.3l36.5,15.6l1.5,1.5l20.1,50v1.5h-0.7l-50-20.9l-1.5-1.5l-15.2-36.7c-2.3-4.5-6.3-7.7-11.1-8.9
					c-8.8-2.3-17.7,3.1-19.9,11.9c-0.1,0.2-0.1,0.5-0.2,0.8v3.7h-1.5v-1.5l-8.9-21.6c-1.8-5.8-6.8-10.1-12.7-11.1
					c-5.8-1.4-11.9,0.6-15.6,5.2c-4.1,4.6-5.3,11.4-3,17.2l2.3,5.9l0,0c-8.3-4.5-18.5-1.4-23.1,6.8c-1.9,3.4-2.4,7.3-1.5,11.1
					c0.9,6.9,5.9,12.4,12.7,14.2l-6.8,3c-3,1.1-5.5,2.8-7.5,5.2c-4.6,5.8-4.9,14-0.7,20.1c4.1,6.5,12.2,9.2,19.4,6.8l11.1-4.5
					l12.7-4.5v1.5c-2.6,4.9-3,10.5-0.7,15.6c3.4,8.4,12.9,12.4,21.3,9c0.1,0,0.1-0.1,0.2-0.1l36.5-14.9h0.7l50,20.9l0,0l-49.9,20.9
					h-1.5L112.6,246l-3.7-1.5c-8.8-2.4-17.8,2.8-20,11.6c-1.4,5.3,0,11.1,3.7,15.2v1.5l-13.4-5.2l-12-5.2c-8.7-3-18,1.5-21,10.2
					c-3,8.7,1.5,18,10.2,21c0.1,0,0.2,0.1,0.4,0.1l6.8,3c-3.1,1.1-5.9,2.8-8.2,5.2c-1.9,2.4-3.2,5.2-3.7,8.2
					c-1.2,6.9,2.1,13.7,8.2,17.2c5.1,2.8,11.3,2.8,16.4,0v1.5c-1.2,2.7-2.1,5.5-3,8.2c-2.4,8.8,2.8,17.8,11.5,20.1
					c2.8,0.7,5.8,0.7,8.7,0c5.5-1.3,10-5.2,12-10.4l8.2-21.6v0.7c0.7,9.1,8.8,15.9,17.9,15.2c6.4-0.6,11.9-4.7,14.1-10.7l15.6-36.5
					l1.5-1.5l50.7-20.9h0.7l-21,50l-1.5,1.5l-36.5,14.8c-2.6,1.2-5,3-6.8,5.2c-5.9,6.9-5.2,17.2,1.5,23.1c2.1,1.9,4.6,3.1,7.3,3.7
					h2.3l-21.6,8.9c-4.5,1.7-8.1,5.2-9.7,9.7c-3.3,8.5,0.8,18.3,9.5,21.6c3.9,1.5,8.3,1.5,12.2,0l5.9-2.3h1.5
					c-2.4,4-2.8,8.9-1.5,13.4c1.3,4.1,4.3,7.7,8.2,9.7c3.4,1.9,7.3,2.4,11.1,1.5c5.7-1.1,10.5-5.1,12.7-10.4v1.5l3,6.8
					c3.8,8.3,13.5,11.9,21.7,8.2c1.7-0.7,3.1-1.7,4.4-3c5.5-4.9,7.2-12.7,4.5-19.4l-8.9-22.4h0.7c6.3,5.9,16.1,5.9,22.4,0
					c4.9-4.9,6.4-12.2,3.7-18.6l-14.9-36.5c-0.2-0.7-0.2-1.5,0-2.3l19.4-46.9v196.9c-1.2,3.6,0.6,7.3,4.1,8.5
					c3.6,1.2,7.3-0.6,8.5-4.1c0.5-1.4,0.5-3,0-4.4v-37.3c3.1,1.1,6.4-0.6,7.5-3.6v-0.1l19.4-35.8l7.5-13.4l1.5,1.5l46.2,29.9
					c2.6,2.1,6.3,1.7,8.4-0.8c0.9-1.2,1.4-2.8,1.3-4.4l2.3-44.8v-12.7h1.5l50,6.8h5.2c3.2,0.9,6.5-0.8,7.5-4c0.5-1.7,0.2-3.4-0.7-5
					l-14.2-34.3l-8.2-19.4l20.1-6.8l37.3-8.9c3.3-0.4,5.7-3.3,5.3-6.5c-0.2-2-1.4-3.7-3.1-4.6 M241.7,263.2l-1.5,1.5v1.5l-27.6,65.7
					c-1.1,2.4-1.1,5.1,0,7.5l15.6,38.8c1.1,2.3,0.1,5-2.1,6s-5,0.1-6-2.1v-0.1l-8.2-20.1c-1.1-3.1-4.4-4.7-7.5-3.7
					c-1.8,0.6-3.1,2-3.7,3.7l-5.9,14.9c-0.6,1.4-0.6,3.1,0,4.5l15.6,39.6c1.1,2.1,0.1,4.9-2,5.8c-2.1,0.9-4.9,0.1-5.8-2
					c-0.1-0.2-0.2-0.5-0.2-0.8l-8.2-19.4c-0.5-1.5-1.5-2.8-3-3.7c-2.7-1.8-6.4-1.1-8.3,1.7c-0.2,0.5-0.5,0.8-0.7,1.3l-5.9,14.9
					c-0.8,2.3-3.3,3.4-5.6,2.6c-2.3-0.8-3.4-3.3-2.6-5.6l5.9-14.9c1.8-2.8,0.8-6.5-2-8.2c-1.9-1.2-4.4-1.2-6.3,0l-20.1,8.2
					c-2.1,1.1-4.9,0.1-5.8-2c-0.9-2.1-0.1-4.9,2-5.8c0.2-0.1,0.5-0.2,0.8-0.2l30.6-12.7l8.9-3.7c1.8-0.6,3.1-2,3.7-3.7l5.9-14.2
					c1.8-2.8,0.8-6.5-2-8.2c-1.9-1.2-4.4-1.2-6.3,0l-20.1,8.2c-2.3,1.1-5,0.1-6-2.1c-1.1-2.3-0.1-5,2.1-6h0.1l29-12l9.7-3.7
					c2.1-0.7,3.7-2.4,4.5-4.5l28.3-67.1c1.8-2.8,0.8-6.5-2-8.2c-1.9-1.2-4.4-1.2-6.3,0l-20.1,8.2l-46.9,19.4
					c-2.1,0.7-3.7,2.4-4.5,4.5l-15.6,38c-0.4,1.2-1.2,2.3-2.3,3c-2.4,1.2-5.2,0.1-6.3-2.3c-0.5-0.9-0.6-2-0.4-3v-1.5l8.9-18.6
					c1.5-3.1,0.4-7-2.8-8.5c-1.4-0.7-3.1-0.8-4.6-0.5l-14.9,5.9c-1.8,0.6-3.1,2-3.7,3.7l-16.1,38.4v1.5c-1.1,2.3-3.8,3.2-6,2.1
					c-2.3-1.1-3.2-3.7-2.3-5.9l8.2-20.1c1.8-2.8,0.8-6.5-2-8.2c-1.9-1.2-4.4-1.2-6.3,0L70,316.8c-2.1,1.2-5,0.4-6.2-1.8
					s-0.4-5,1.8-6.2c0.2-0.1,0.4-0.2,0.6-0.2l12-5.2l3-1.5c3.3-1.7,4.6-5.6,3-8.9c-0.6-1.3-1.7-2.4-3-3l-19.4-7.5l-3-2.3
					c-0.9-1.8-0.6-3.8,0.7-5.2c1.1-1.3,2.8-1.9,4.5-1.5h1.5l38,16.4c2.1,0.9,4.6,0.9,6.8,0l13.4-5.2c3.3,0,5.9-2.7,5.9-5.9
					s-2.7-5.9-5.9-5.9l-20.1-7.5c-2.5-0.7-3.8-3.3-3-5.8c0.7-2.3,3-3.6,5.2-3.2h2.3l38.8,16.4c2.1,0.9,4.6,0.9,6.8,0l67.1-27.6
					c3.2-0.9,5-4.3,4-7.5c-0.5-1.7-1.7-3-3.3-3.7l-5.2-2.3l-60.9-25.2c-2.1-0.9-4.6-0.9-6.8,0l-40.3,15.6c-1.4,0.7-3.1,0.7-4.5,0
					c-2.3-1.2-3.1-3.8-1.9-6c0.2-0.6,0.7-1.1,1.2-1.4h1.5l19.4-8.2c3.3,0,5.9-2.7,5.9-5.9c0-3.3-2.7-5.9-5.9-5.9l-13.4-5.2
					c-1.9-0.8-4-0.8-5.9,0l-38.8,14.9h-3.7c-2.3-1.2-3.1-3.8-1.9-6c0.2-0.6,0.7-1.1,1.2-1.4H63l19.4-8.2c3.3-0.9,5.2-4.4,4.3-7.7
					c-0.6-2-2.1-3.7-4.3-4.3l-14.9-6c-2.3-1.2-3.1-3.8-1.9-6c0.2-0.6,0.7-1.1,1.2-1.4c1.4-0.8,3.1-0.8,4.5,0l14.9,5.9
					c2.8,1.8,6.5,0.8,8.2-2c1.2-1.9,1.2-4.4,0-6.3l-8.2-21.6c-0.9-2.3,0.1-4.7,2.4-5.7c2.3-0.9,4.7,0.1,5.7,2.4
					c0,0.1,0.1,0.2,0.1,0.4l4.5,12l11.1,27.6c0.7,2.1,2.4,3.7,4.5,4.5l13.4,5.9c3,1.5,6.6,0.4,8.2-2.6c0.9-1.8,0.9-3.8,0-5.6
					l-8.2-20.1c-1.2-2.3-0.4-5.1,2-6.3c2.3-1.2,5-0.4,6.3,1.8v1.5l15.6,38.8c0.8,2,2.5,3.7,4.5,4.5l66.4,27.6c1.9,0.9,4,0.9,5.9,0
					c2.8-1.7,3.9-5.2,2.3-8.2c0,0,0,0,0-0.1l-16.4-39.6l-11.1-27.6c-0.8-2-2.5-3.7-4.5-4.5l-37.8-16.4c-2.5-0.4-4.1-2.7-3.7-5.2
					c0.4-2.5,2.7-4.1,5.2-3.7h2.3l19.4,8.9c2.7,1.7,6.3,0.7,7.9-2c0.9-1.7,1.1-3.7,0.2-5.5l-5.9-14.2c-0.8-1.9-2.5-3.2-4.5-3.7
					l-38.9-16.4c-2.5-0.5-4.1-2.7-3.7-5.2c0.5-2.5,2.7-4.1,5.2-3.7h1.5l20.1,8.2c3.2,1.2,6.8-0.4,8.1-3.6c0.5-1.3,0.6-2.6,0.2-3.9
					l-3-7.5l-3.7-8.9c-0.9-2.3,0.1-4.7,2.4-5.7c2.3-0.9,4.7,0.1,5.7,2.4c0,0.1,0.1,0.2,0.1,0.4l5.9,14.9c1.1,3.1,4.5,4.7,7.6,3.7
					c0.5-0.1,0.9-0.4,1.3-0.7l2.3-3l9-20.9c1.1-2.1,3.7-3.1,5.8-2c1.9,0.9,2.8,3.1,2.4,5.1v2.3L195.5,99c-0.8,1.9-0.8,4,0,5.9
					l5.9,14.2c1.2,3.1,4.6,4.6,7.7,3.4c0.7-0.2,1.4-0.7,2-1.3l1.5-3l8.2-19.4c0.8-2.4,3.6-3.7,5.9-2.7c2,0.7,3.3,2.8,3,5v2.3
					l-16.4,38.8c-0.7,1.7-0.7,3.6,0,5.2l26.9,67.2l1.5,2.3l2.3,1.5v44h-2.4 M256.6,355.6V131.8h20.9l6.8,1.5
					c44.8,13.5,76.6,53.3,79.8,99.9c1.7,15.6-0.1,31.4-5.2,46.2c-9.2,28.7-29.6,52.4-56.7,65.7c-13,6.5-27.3,10.3-41.7,11.1h-3.7
					 M418.4,289.9l-33.5,10.4c-2.5,0.6-4.3,2.7-4.5,5.2c-0.1,1.5,0.1,3.1,0.7,4.5l19.4,46.9v2.3l-11.1-1.5l-41-5.9
					c-3.2-0.8-6.4,1.1-7.2,4.3c-0.1,0.6-0.2,1.1-0.2,1.7c-0.7,12.7-1.5,25.4-2.3,37.3v16.4h-1.5l-42.6-27.6c-2-2.6-5.8-3-8.4-0.9
					c-1.1,0.8-1.8,1.9-2,3.2l-23.8,44l-1.5,2.3l-1.5-2.3v-61.9h20.1l7.5-1.5c23.5-6.4,44.4-19.7,60.4-38c19-21,30-47.9,31.3-76.1
					c1.3-22.6-3.9-45-14.9-64.8c-16.5-31.2-41.8-55.9-76.1-64.1l-15.6-2.4h-13.4V58.8l0,0l24.7,44h0.7c1.4,3,5,4.3,7.9,2.8
					c0.4-0.1,0.7-0.4,0.9-0.6l27.6-18.6l14.9-9.7h1.4v9l3,44.7c-0.1,3.3,2.5,6,5.8,6.2c0.6,0,1.2,0,1.7-0.2l47.8-7.5h5.2v2.3
					l-18.6,46.9c-2,2.6-1.7,6.3,0.9,8.4c1.1,0.8,2.3,1.3,3.6,1.3l49.2,14.9h2.3l-1.5,1.5l-37.3,35.1c-2.5,1.5-3.4,4.7-2.3,7.5l2.3,3
					L434,284l1.5,1.5l-17.9,6"/>
			</g>
		</g>
	</g>
</g>
</svg>
