<?xml version="1.0" encoding="utf-8"?>
<!-- Generator: Adobe Illustrator 25.2.1, SVG Export Plug-In . SVG Version: 6.00 Build 0)  -->
<svg version="1.1" xmlns="http://www.w3.org/2000/svg" xmlns:xlink="http://www.w3.org/1999/xlink" x="0px" y="0px"
	 viewBox="0 0 500 500" style="enable-background:new 0 0 500 500;" xml:space="preserve">
<style type="text/css">
	.st0{display:none;}
	.st1{display:inline;fill:#E4E5E6;}
	.st2{fill:#92C4EA;}
	.st3{fill:#FFFFFF;}
</style>
<g id="Layer_2" class="st0">
	<rect x="-11.4" y="-4" class="st1" width="518.9" height="506.1"/>
</g>
<g id="Layer_1">
	<g id="gquLvD.tif">
		<path class="st2" d="M225,268.5c1.4-2,2-3.3,3-4.3c22.9-22.9,45.8-45.8,68.7-68.8c7.3-7.4,15.9-10.1,25.9-6.9
			c15.3,5,21,24.2,11,36.8c-1.1,1.4-2.3,2.8-3.6,4c-28.8,28.8-57.6,57.7-86.4,86.5c-11.8,11.7-25.4,11.8-37.2,0.1
			c-13.5-13.5-27-26.9-40.5-40.5c-9.7-9.7-10.4-23-2.1-33c8.3-9.9,23.3-11.6,33-2.9c8.7,7.7,16.6,16.2,24.9,24.5
			C222.7,265.1,223.4,266.4,225,268.5z"/>
		<g>
			<path class="st3" d="M250.4,82.5c43.5,25.5,89.5,45.5,138.1,59.1c6.4,1.8,7.8,3.7,7.8,10.4c-0.1,28,0.4,56-0.5,84
				c-1.1,33.8-10.1,65.6-26.7,95.1c-20.5,36.5-49.4,64.7-85.8,85.4c-9.8,5.6-19.9,10.5-31.2,12.5c-7,1.3-13.4-1-19.7-3.4
				c-20.6-8-38.8-20.1-55.5-34.4c-25.6-21.9-45.5-48.1-58.9-79.1c-7.7-17.8-13.2-36.2-15.3-55.5c-1.4-13-2.1-26.1-2.3-39.1
				c-0.4-21.7-0.1-43.4-0.1-65c0-7.1,1.3-8.9,8.1-10.8c46.6-13,90.7-31.7,132.5-56c1.7-1,3.5-2,5.3-3
				C247.7,82.5,249,82.5,250.4,82.5z M381.1,198.3c0.2,0,0.3,0,0.5,0c0-13.2-0.1-26.4,0.1-39.6c0-2.9-1-4-3.7-4.8
				c-44.4-13-86.6-31.1-126.8-54c-2.1-1.2-3.7-1.2-5.8,0c-21,12.1-42.5,23.3-65.1,32.1c-20.5,8-41.5,14.8-62.3,22.1
				c-1.7,0.6-3.1,0.8-3,3.2c0.4,28.9,0.1,57.8,1.4,86.6c1.1,25.1,8.5,48.9,19.6,71.5c12.4,25.3,29.8,46.8,51.2,64.9
				c15,12.8,31.4,23.5,49.7,31.1c7.2,3,14.2,4.1,21.5,0.6c3.1-1.5,6.4-2.7,9.6-4.2c28.2-13.9,51.8-33.5,71.2-58.2
				c25.7-32.6,39.4-69.9,41.9-111.1C381.8,225.2,381.1,211.8,381.1,198.3z"/>
			<path class="st3" d="M225,268.5c1.4-2,2-3.3,3-4.3c22.9-22.9,45.8-45.8,68.7-68.8c7.3-7.4,15.9-10.1,25.9-6.9
				c15.3,5,21,24.2,11,36.8c-1.1,1.4-2.3,2.8-3.6,4c-28.8,28.8-57.6,57.7-86.4,86.5c-11.8,11.7-25.4,11.8-37.2,0.1
				c-13.5-13.5-27-26.9-40.5-40.5c-9.7-9.7-10.4-23-2.1-33c8.3-9.9,23.3-11.6,33-2.9c8.7,7.7,16.6,16.2,24.9,24.5
				C222.7,265.1,223.4,266.4,225,268.5z M323.8,212.8c0.1-6.1-2.6-9.5-6.8-10.6c-4.3-1.1-7.3,1.1-10.1,3.9
				c-24.9,24.9-49.8,49.8-74.7,74.7c-5.5,5.5-8.9,5.5-14.3,0.1c-9.3-9.3-18.7-18.7-28-28c-4.9-4.9-10.3-5.5-14.3-1.6
				c-3,2.9-4.5,9.3,1.3,14.3c2.8,2.4,5.3,5.2,7.9,7.9c11,11,22,22.1,33.1,33c4.6,4.6,9.6,4.5,14.2,0c1.3-1.3,2.6-2.6,3.8-3.8
				c27.9-27.9,55.9-55.9,83.8-83.9C321.7,216.9,323,214.1,323.8,212.8z"/>
			<path class="st3" d="M129.2,184.9c0-4.2,0-8.3,0-12.5c0.1-4.7,1.7-7,6.1-8.6c12.6-4.5,25.2-9,37.8-13.4c4.8-1.7,8.9-0.2,10.5,3.9
				c1.6,4.2-0.5,8.1-5.5,10c-10.3,3.8-20.7,7.5-31.1,11.1c-2.2,0.8-3.2,1.7-3.1,4.3c0.2,6,0.1,12,0.1,17.9c0,5.7-2.8,9-7.4,9
				c-4.6,0-7.3-3.4-7.4-9.1C129.2,193.2,129.2,189.1,129.2,184.9z"/>
			<path class="st3" d="M338.9,324.2c-0.8,1.7-1.4,3.5-2.4,5.1c-11.8,18-26.7,33.2-43.5,46.4c-3.8,3-7.9,2.8-10.6-0.3
				c-2.9-3.3-2.4-7.6,1.3-11c7.4-6.8,15.3-13.1,22.2-20.3c6.7-7.1,12.4-15.2,18.4-22.9c1.7-2.2,3.4-4.2,6.4-4.4
				C335.1,316.4,338.5,319.6,338.9,324.2z"/>
			<path class="st3" d="M262.4,382.5c0.1-4.3,3.7-7.5,8-7.3c3.8,0.2,7,3.5,6.9,7.3c0,4-3.9,7.6-8,7.5
				C265.3,389.9,262.3,386.7,262.4,382.5z"/>
			<path class="st3" d="M204.9,148.3c0,4-3.7,7.4-7.8,7.3c-3.7-0.1-7-3.6-7-7.4c0-3.8,3.6-7.3,7.4-7.3
				C201.5,140.9,205,144.4,204.9,148.3z"/>
		</g>
	</g>
</g>
</svg>
