<?xml version="1.0" encoding="utf-8"?>
<!-- Generator: Adobe Illustrator 24.1.0, SVG Export Plug-In . SVG Version: 6.00 Build 0)  -->
<!DOCTYPE svg PUBLIC "-//W3C//DTD SVG 1.1//EN" "http://www.w3.org/Graphics/SVG/1.1/DTD/svg11.dtd" [
	<!ENTITY ns_extend "http://ns.adobe.com/Extensibility/1.0/">
	<!ENTITY ns_ai "http://ns.adobe.com/AdobeIllustrator/10.0/">
	<!ENTITY ns_graphs "http://ns.adobe.com/Graphs/1.0/">
	<!ENTITY ns_vars "http://ns.adobe.com/Variables/1.0/">
	<!ENTITY ns_imrep "http://ns.adobe.com/ImageReplacement/1.0/">
	<!ENTITY ns_sfw "http://ns.adobe.com/SaveForWeb/1.0/">
	<!ENTITY ns_custom "http://ns.adobe.com/GenericCustomNamespace/1.0/">
	<!ENTITY ns_adobe_xpath "http://ns.adobe.com/XPath/1.0/">
]>
<svg version="1.1" id="Layer_1" xmlns:x="&ns_extend;" xmlns:i="&ns_ai;" xmlns:graph="&ns_graphs;"
	 xmlns="http://www.w3.org/2000/svg" xmlns:xlink="http://www.w3.org/1999/xlink" x="0px" y="0px" viewBox="0 0 500 500"
	 style="enable-background:new 0 0 500 500;" xml:space="preserve">
<style type="text/css">
	.st0{fill:#AACBEB;}
	.st1{fill:#FFFFFF;}
</style>
<metadata>
	<sfw  xmlns="&ns_sfw;">
		<slices></slices>
		<sliceSourceBounds  bottomLeftOrigin="true" height="490.5" width="451.3" x="26.7" y="4.5"></sliceSourceBounds>
	</sfw>
</metadata>
<g id="Artwork_5" transform="translate(49.94 55.665)">
	<g>
		<g>
			<g id="Group_18962" transform="translate(-49.94 -55.665)">
				<path id="Path_98906" class="st0" d="M177,332.1c15.3,3.3,31.2,4.5,46.9,3.9l-1.6,2.3c-8.6,12.4-12.3,27.6-10.4,42.6
					c1.1,10.7,3,21.6,4.6,32.3c0.4,2.8,0.7,5.6,0.7,8.4c0,8-5.4,15.1-13,17.3c-6.9,2.2-14.5-0.2-18.8-6.1c-5-6.2-6.3-14.4-3.9-21.9
					c2.3-8,5.4-16.1,7.7-24.2c1.7-5.5,2.9-11.2,3.9-16.9c0.7-8.4-1.6-16.9-6.6-23.7L177,332.1"/>
				<path id="Path_98907" class="st1" d="M27.9,5h132.6c0.7,0,1.5,0.6,1.5,1.5v42c0,0.7-0.6,1.5-1.5,1.5h-12.2
					c-0.7,0-1.5,0.6-1.5,1.5v72.3c0,0.7,0.6,1.5,1.5,1.5h11.8c0.7,0,1.5,0.6,1.5,1.5v42.5c0,0.7-0.6,1.5-1.5,1.5h-11.4
					c-0.9,0-1.6,0.9-1.5,1.7c0.7,3.7,1.6,7.3,2.8,11c8.6,28.5,35.1,47.9,64.9,47.6c9.1,0.2,18.3-0.2,27.3-1.6
					c28.5-5.2,50.4-28,54.4-56.7v-0.1c0-0.5,0-1,0-1.5h-12.8c-0.7,0-1.5-0.6-1.5-1.5V127c0-0.7,0.6-1.5,1.5-1.5h12.2
					c0.7,0,1.5-0.6,1.5-1.5v-37c-0.1-21.6,10.4-41.8,28-54.1c11.8-8.8,26.3-13.4,41-13h65c0.7,0,1.5-0.6,1.5-1.5V6.8
					c0-0.7,0.6-1.5,1.5-1.5h42c0.7,0,1.5,0.6,1.5,1.5v116.9c0,0.7-0.6,1.5-1.5,1.5h-42c-0.7,0-1.5-0.6-1.5-1.5v-11.8
					c0-0.7-0.6-1.5-1.5-1.5h-22.4c-3.5,0.4-6.3,3.3-6.6,6.9v6.7c0,0.7,0.6,1.5,1.5,1.5h12.2c0.7,0,1.5,0.6,1.5,1.5v43.8h-13.6
					c-0.7,0-1.3,0.5-1.5,1.2l-1,9.1c-2.9,28-12.7,54.9-28.4,78.3c-12.1,18-27.4,33.7-45.3,46c-1.5,1.1-2.7,2.6-3.4,4.3
					c-4,9.3-5.6,19.5-4.6,29.5c0,0,0,0,0,0.1c1,6.3,0.9,12.8-0.4,19.1c-3,12.4-15.5,20-27.9,16.9c-2.9-0.7-5.7-2.1-8.2-3.9
					c-5.8-4.5-8.9-11.8-8-19.2c0.7-5.7-2.1-11.2-6.9-14.2l-6.6-3.7c-0.2-0.1-0.5-0.1-0.7-0.1h-2.2c-0.1,0-0.1,0-0.2,0l-10.1,1.5
					c-0.1,0-0.2,0-0.4,0.1l-2.3,1c-0.1,0-0.2,0.1-0.2,0.1c-12.4,8.6-19.4,23.1-18.3,38.2c0.7,10.7,2.7,21.4,4.3,32.6v0.1
					c1.6,6.8,1.9,14,1.1,20.9v0.1c-2.7,13.4-11.9,21.1-24.1,25.2c-12.3,4.3-29.2-3.9-35.7-13.4c-6.8-11-8.4-24.2-4.6-36.4
					c3.9-12.7,5.7-16.6,8.4-25c0.7-2.6,1.5-5.1,1.9-7.7c1.2-6.2-0.1-12.5-3.9-17.7c-6.8-10.4-14.7-19.8-23.7-28.4
					c-2.1-2.1-4.4-3.7-6.9-5c-51.9-24.6-84-64.1-97.9-118.6c-2.6-9.6-3.4-20-5.1-30.3c-0.1-0.7-0.7-1.2-1.5-1.2H28.2
					c-0.7,0-1.5-0.6-1.5-1.5v-42.9c0-0.7,0.6-1.5,1.5-1.5h12.2c0.7,0,1.5-0.6,1.5-1.5v-72c0-0.7-0.6-1.5-1.5-1.5H28.2
					c-0.7,0-1.5-0.6-1.5-1.5v-42C26.5,5.7,27.1,5,27.9,5z M206.9,320.9h24.6c16.8,0,33.6-2.9,49.6-8.4c55-19,95.2-66.5,104.8-124
					c0.7-5.2,1.5-10.5,2.1-16.1c0.1-0.9-0.5-1.6-1.5-1.6c-10,0-63.6,0-72.9,0c-0.7,0-1.5,0.6-1.5,1.5v5.4c0,0.1,0,0.2,0,0.4
					c-6.6,31.1-24.6,52.8-54.4,63.6c-18.4,6-38,7.1-56.9,3c-26.3-4-49-20.8-60.3-44.9c-4.3-8.6-6.9-17.9-7.9-27.5
					c-0.1-0.7-0.7-1.2-1.5-1.2H58.4c-0.9,0-1.5,0.7-1.5,1.5c5.4,83.2,70.9,137.4,130.4,145.8L206.9,320.9 M386.7,125.2
					c0.7,0,1.5-0.6,1.5-1.5v-7.1c0.2-9.4,6.5-17.5,15.3-20.3c3-0.7,6.1-1.2,9.3-1.1h18.9c0.7,0,1.5-0.6,1.5-1.5v-57
					c0-0.7-0.6-1.5-1.5-1.5h-66.1c-5.2,0.1-10.4,0.9-15.3,2.3c-21.4,6.3-36.5,25.6-37.6,48c-0.4,12.7,0,25.2,0,37.9
					c0,0.1,0,0.1,0,0.2c0,0.2,0.1,0.4,0.1,0.6c0.1,0.7,0.7,1.2,1.5,1.2L386.7,125.2z M58.3,125.2h72c0.7,0,1.5-0.6,1.5-1.5v-72
					c0-0.7-0.6-1.5-1.5-1.5h-72c-0.7,0-1.5,0.6-1.5,1.5v72C56.8,124.6,57.4,125.2,58.3,125.2z M177,332.1l9.6,13.8
					c5,6.8,7.3,15.3,6.6,23.7v0.1c-0.9,5.7-2.2,11.3-3.8,16.8c-2.3,8-5.4,16.1-7.7,24.2c-2.6,7.4-1.1,15.7,3.9,21.9
					c4.3,5.8,11.8,8.4,18.8,6.1c7.7-2.2,13-9.3,13-17.3c-0.1-2.8-0.4-5.6-0.7-8.4c-1.6-10.7-3.4-21.6-4.6-32.3
					c-1.8-14.9,1.8-30,10.4-42.3l0,0c0.6-1-0.1-2.2-1.2-2.2c-14.7,0.5-29.6-0.9-44.1-3.9 M43.3,35h101.9c0.7,0,1.5-0.6,1.5-1.5V21.3
					c0-0.7-0.6-1.5-1.5-1.5H43.3c-0.7,0-1.5,0.6-1.5,1.5v12.2C41.8,34.3,42.6,35,43.3,35z M43.3,155.1h101.9c0.7,0,1.5-0.6,1.5-1.5
					v-11.3c0-0.7-0.6-1.5-1.5-1.5H42.9c-0.9,0-1.5,0.6-1.5,1.5l0.4,11.3C41.8,154.5,42.4,155.1,43.3,155.1z M299.2,155.1h101.9
					c0.7,0,1.5-0.6,1.5-1.5v-11.3c0-0.7-0.6-1.5-1.5-1.5H298.9c-0.9,0-1.5,0.6-1.5,1.5l0.4,11.3
					C297.9,154.5,298.5,155.1,299.2,155.1z M449.7,109.8h11.7c0.7,0,1.5-0.6,1.5-1.5V21.4c0-0.7-0.6-1.5-1.5-1.5h-11.7
					c-0.7,0-1.5,0.6-1.5,1.5v86.9C448.3,109.2,449,109.8,449.7,109.8z M281,328.7h0.4c6.6,6.1,9.9,14.9,8.8,23.7
					c-0.4,3,1.2,5.8,3.9,7.3c2.9,1.2,6.2,0.6,8.4-1.6c1.9-2.1,2.9-4.9,2.7-7.7v-26.8v-0.1c0.1-0.9,0.2-1.6,0.4-2.4
					c0.1-1.1-0.9-1.9-1.9-1.6l-22.2,8.6"/>
				<path id="Path_98908" class="st0" d="M281,329l24.6-9.6c-0.4,1.6-0.6,3.3-0.7,5c0,8.8,0,18,0,26.9c0.2,2.8-0.7,5.6-2.7,7.7
					c-2.2,2.2-5.6,2.8-8.4,1.6c-2.7-1.5-4.1-4.3-3.9-7.3c1-8.9-2.3-17.8-8.8-23.7h-0.4"/>
				<path id="Path_98909" class="st1" d="M380,50.3v15h-5.4c-5.4-0.1-10.8,0.2-16.1,1.1c-9.5,2.7-16,11.3-15.7,21.1v15.3h-15
					c-0.2-7.7,0.1-15.5,1.1-23c3.3-16.4,17.4-28.5,34.2-29.2h17.3"/>
				<rect id="Rectangle_906" x="395.3" y="50.3" class="st1" width="14.6" height="14.9"/>
				<rect id="Rectangle_907" x="102.1" y="65.3" class="st1" width="15" height="44.9"/>
				<path id="Path_98910" class="st1" d="M234.6,256.1c-66.1,0-119.7,53.6-119.7,119.7s53.6,119.7,119.7,119.7
					s119.7-53.6,119.7-119.7S300.7,256.1,234.6,256.1L234.6,256.1 M234.6,272.9c35.9,0,69.3,18.8,87.9,49.6l-180.8,97.9
					c-24.6-51.3-3-112.6,48.2-137.2C203.8,276.4,219.1,272.9,234.6,272.9 M234.6,478.7c-33.2,0-64.3-16-83.7-43l179.6-97.2
					c20.6,53-5.7,112.5-58.7,133.1C259.9,476.4,247.2,478.7,234.6,478.7"/>
			</g>
		</g>
	</g>
</g>
</svg>
