<svg xmlns="http://www.w3.org/2000/svg" xmlns:xlink="http://www.w3.org/1999/xlink" width="1915.416" height="1043.417" viewBox="0 0 1915.416 1043.417"><defs><style>.a,.e,.g,.h,.i,.j,.k,.l,.m,.n,.o,.p,.q,.r,.s,.t,.u,.v,.w{fill:none;}.b{opacity:0.476;}.c{clip-path:url(#a);}.d{opacity:0.5;}.e,.g,.h,.i,.j,.k,.l,.m,.n,.o,.p,.q,.r,.s,.t,.u,.v,.w{stroke:#fff;}.e,.g,.h,.i,.j,.k,.l,.m,.n,.p,.q,.r,.s,.t,.u,.v,.w{stroke-miterlimit:10;}.e{stroke-width:2.429px;}.f{fill:#fff;}.g{stroke-width:4.196px;}.h,.j{stroke-width:4.196px;}.h{stroke-dasharray:4.03 4.03;}.i{stroke-width:4.196px;}.j{stroke-dasharray:3.8 3.8;}.k{stroke-width:2.429px;}.l{stroke-width:0.552px;}.m,.q{stroke-width:0.552px;}.n{stroke-width:1.215px;}.o{stroke-miterlimit:30;stroke-width:0.69px;}.p{stroke-width:3.726px;stroke-dasharray:15.2 15.2;}.q{stroke-dasharray:6 6;}.r{stroke-width:3.726px;}.s,.u{stroke-width:3.726px;}.s{stroke-dasharray:7.04 7.04;}.t{stroke-width:3.726px;}.u{stroke-dasharray:8.81 8.81;}.v{stroke-width:1.215px;}.w{stroke-width:1.215px;}</style><clipPath id="a"><path class="a" d="M935.823,754.845C267.816,754.845-2.7,880.717-2.7,880.717V-162.7H1912.716V880.717S1603.555,754.845,935.823,754.845Z" transform="translate(2.7 162.7)"/></clipPath></defs><g class="b" transform="translate(957.708 521.709)"><g class="c" transform="translate(-957.708 -521.709)"><g transform="translate(7.453 449.111)"><g class="d" transform="translate(585.197 205.923)"><path class="e" d="M212,75.7,511.223,379.616,813.207,77.632" transform="translate(-212 -72.664)"/><path class="f" d="M435.141,95.3l-2.208-1.1,6.625-14.354L425.2,86.47l-1.1-2.208L444.527,74.6Z" transform="translate(161.373 -74.6)"/></g><g class="d" transform="translate(0 82.535)"><line class="g" x1="3.865" y2="3.588" transform="translate(441.382 194.606)"/><line class="h" x1="105.998" y2="105.998" transform="translate(327.655 206.199)"/><path class="i" d="M121.777,144.4l-3.588,3.865L114.6,144.4" transform="translate(201.738 171.662)"/><line class="j" x1="293.151" y1="292.875" transform="translate(15.734 15.734)"/><line class="g" x1="3.865" y1="3.865" transform="translate(8.281 8.281)"/><path class="f" d="M35.333,46.186l-1.656,3.865L8.557,38.457,20.427,63.3l-3.865,1.932L0,29.9Z" transform="translate(0 -29.9)"/></g><g transform="translate(1233.054 175.007)"><path class="k" d="M446.7,251.8,647.1,452.2l387-387" transform="translate(-446.7 -60.231)"/><path class="f" d="M664.665,84.1,662.457,83l6.9-14.354-14.63,6.625-.828-2.208L674.327,63.4Z" transform="translate(-81.953 -63.4)"/></g><g transform="translate(1605.703 304.468)"><path class="k" d="M1002.8,244.5,859.26,387.76,583.5,112" transform="translate(-578.531 -107.307)"/><path class="f" d="M602.127,119.685l-.828,2.208-14.63-6.625,6.9,14.354-2.208,1.1L581.7,110.3Z" transform="translate(-581.7 -110.3)"/></g><g transform="translate(577.744 61.28)"><path class="e" d="M700.964,206.46,547.212,360.212,211,24" transform="translate(-206.307 -19.031)"/><path class="f" d="M229.727,31.861l-1.1,2.208-14.354-6.625L220.894,41.8l-2.208,1.1L209.3,22.2Z" transform="translate(-209.3 -22.2)"/></g><g transform="translate(1205.451 223.313)"><path class="l" d="M930.653,267.348,777.177,421.1,437.1,81.3" transform="translate(-435.996 -80.196)"/><path class="f" d="M441.393,82.832l-.276.552L438.08,82l1.38,3.312h-.552L436.7,80.9Z" transform="translate(-436.7 -80.9)"/></g><g transform="translate(940.732 87.227)"><path class="m" d="M785.342,31.6,468.177,348.766,341.2,221.789" transform="translate(-340.096 -31.6)"/><path class="f" d="M345.493,102.308l-.276.552L341.9,101.2l1.38,3.312-.276.276L340.8,100.1Z" transform="translate(-340.8 88.985)"/></g><g transform="translate(318.822 237.943)"><path class="l" d="M115.5,86.2,432.666,403.366,559.642,276.389" transform="translate(-115.5 -86.2)"/><path class="f" d="M277.584,159.117h-.552l1.656-3.312-3.312,1.38-.276-.552,4.693-1.932Z" transform="translate(165.454 34.385)"/></g><g transform="translate(907.055 88.056)"><path class="m" d="M328.6,286.253l208.959,208.96L1000.748,32.3" transform="translate(-328.6 -31.196)"/><path class="f" d="M573.284,36.593l-.552-.276L574.112,33l-3.036,1.656-.276-.552,4.693-2.208Z" transform="translate(97.76 -31.9)"/></g><g transform="translate(351.118 199.298)"><path class="n" d="M505.67,196.44,378.693,323.693,127.5,72.5" transform="translate(-126.672 -71.672)"/><path class="f" d="M134.377,72.2v1.38L128.3,73.3l.276,6.073h-1.1L127.2,72.2Z" transform="translate(-127.2 -72.2)"/></g><g transform="translate(79.498 284.041)"><path class="o" d="M28.8,207.894,204.359,383.729,485.088,103" transform="translate(-28.8 -102.724)"/><path class="f" d="M196.665,107.041l-.828-.276.276-3.312-3.312.276V102.9h4.141Z" transform="translate(259.9 -102.9)"/></g><g transform="translate(576.64 194.054)"><path class="p" d="M555.817,70.3,347.41,278.707,211.6,142.9" transform="translate(-204.147 -70.3)"/><path class="f" d="M240.368,108.53l-1.656,3.312-22.083-10.213,10.489,22.083-3.589,1.656L208.9,93.9Z" transform="translate(-208.9 -28.755)"/></g><g transform="translate(222.761 112.071)"><path class="q" d="M830.539,40.6,385.568,485.571,81.1,181.1" transform="translate(-79.996 -40.6)"/><path class="f" d="M85.393,93.032l-.276.552L81.8,92.2l1.656,3.312h-.552L80.7,91.1Z" transform="translate(-80.7 48.298)"/></g><g transform="translate(1305.376 291.218)"><line class="r" x2="7.453" y2="7.453"/><line class="s" x2="75.634" y2="75.634" transform="translate(21.255 21.255)"/><path class="t" d="M510.5,143.1l7.453,7.453,7.453-7.453" transform="translate(-406.71 -39.31)"/><line class="u" y1="60.176" x2="60.176" transform="translate(135.81 26.223)"/><line class="r" y1="7.453" x2="7.453" transform="translate(204.543 10.213)"/><path class="f" d="M557.838,137.968l-3.312-1.656,10.213-22.083-22.083,10.489L541,121.13l31.468-14.63Z" transform="translate(-353.019 -103.74)"/></g><g transform="translate(1003.668)"><path class="v" d="M363.6,193.525,572.007,401.933,973.364.3" transform="translate(-363.6 0.528)"/><path class="f" d="M589.377,7.177H588l.276-5.8H582.2V.276L589.377,0Z" transform="translate(21.215)"/></g><g transform="translate(1409.442 279.349)"><path class="w" d="M510.6,172.441,641.717,303.835,844.052,101.5" transform="translate(-510.6 -100.672)"/><path class="f" d="M636.277,108.377H634.9l.276-6.073-6.073.276v-1.1l7.177-.276Z" transform="translate(-301.997 -101.2)"/></g></g></g></g></svg>